# xmcd
#
# Track frame offsets: 
#        150
#        27852
#        42919
#        61453
#        89325
#        111279
#        115267
#        128403
#        150956
#        181580
#        199866
#        217074
#        245599
#        264975
#        282386
#
# Disc length: 3928 seconds
#
# Revision: 0
# Processed by: cddbd v1.5.2PL0 Copyright (c) Steve Scherf et al.
# Submitted via: ExactAudioCopyFreeDBPlugin 1.0
#
DISCID=cd0f560f
DTITLE=中国说唱兄弟CMCB - 谁动了我的炸酱面
DYEAR=1900
DGENRE=R&B
TTITLE0=INTRO
TTITLE1=我
TTITLE2=谁动了我的炸酱面
TTITLE3=举起你的手
TTITLE4=跟着我
TTITLE5=仔仔
TTITLE6=No.7乐章
TTITLE7=从梦中醒来
TTITLE8=辉煌
TTITLE9=你我的问题
TTITLE10=谁能救我
TTITLE11=再造辉煌
TTITLE12=都是活雷锋
TTITLE13=下沉
TTITLE14=生于北京
EXTD=
EXTT0=
EXTT1=
EXTT2=
EXTT3=
EXTT4=
EXTT5=
EXTT6=
EXTT7=
EXTT8=
EXTT9=
EXTT10=
EXTT11=
EXTT12=
EXTT13=
EXTT14=
PLAYORDER=
